<svg xmlns="http://www.w3.org/2000/svg" width="472.157" height="230.754" viewBox="0 0 472.157 230.754">
  <g id="group" transform="translate(-723.745 -424.498)">
    <g id="Nexent_Logo" transform="translate(724.098 430.743)">
      <path id="Path_154" data-name="Path 154" d="M392.181,384.549a86.054,86.054,0,0,0-121.689,0L113.37,541.672h0a86.055,86.055,0,0,0,121.694,0L392.181,384.555Z" transform="translate(-113.37 -347.365)" fill="#232222"/>
      <path id="Path_155" data-name="Path 155" d="M608.6,362.417,451.48,519.539h0a86.054,86.054,0,0,0,121.688,0L730.291,362.417A86.055,86.055,0,0,0,608.6,362.417Z" transform="translate(-268.487 -337.21)" fill="#232222"/>
    </g>
    <g id="Nexent_Logo-2" data-name="Nexent_Logo" transform="translate(724.098 424.743)">
      <path id="Path_154-2" data-name="Path 154" d="M392.181,384.549a86.054,86.054,0,0,0-121.689,0L113.37,541.672h0a86.055,86.055,0,0,0,121.694,0L392.181,384.555Z" transform="translate(-113.37 -347.365)" fill="none" stroke="#707070" stroke-width="0.5" stroke-dasharray="20"/>
      <path id="Path_155-2" data-name="Path 155" d="M608.6,362.417,451.48,519.539h0a86.054,86.054,0,0,0,121.688,0L730.291,362.417A86.055,86.055,0,0,0,608.6,362.417Z" transform="translate(-268.487 -337.21)" fill="none" stroke="#707070" stroke-width="0.5" stroke-dasharray="20"/>
    </g>
    <g id="Nexent_Logo-3" data-name="Nexent_Logo" transform="translate(734.098 435.743)">
      <path id="Path_154-3" data-name="Path 154" d="M392.181,384.549a86.054,86.054,0,0,0-121.689,0L113.37,541.672h0a86.055,86.055,0,0,0,121.694,0L392.181,384.555Z" transform="translate(-113.37 -347.365)" fill="#2a2a2a"/>
      <path id="Path_155-3" data-name="Path 155" d="M608.6,362.417,451.48,519.539h0a86.054,86.054,0,0,0,121.688,0L730.291,362.417A86.055,86.055,0,0,0,608.6,362.417Z" transform="translate(-268.487 -337.21)" fill="#2a2a2a"/>
    </g>
  </g>
</svg>
